# xmcd CD database file generated by Grip 3.4.3
# 
# Track frame offsets:
#       150
#       21357
#       29065
#       48637
#       53097
#       66205
#       74555
#       89332
#       96345
#       108822
#       117517
#       129677
#       148357
#       164680
#       174792
#       190137
# 
# Disc length: 2594 seconds
# 
# Revision: 3
# Processed by: cddbd v1.5.2PL0 Copyright (c) Steve Scherf et al.
# Submitted via: Grip 3.4.3
# 
DISCID=f50a2010
DTITLE=Westminster Cathedral Choir and soloists - Christmas: A Festival 
DTITLE=of Carols and Readings
DYEAR=1900
DGENRE=Folk
TTITLE0=Westminster Cathedral Choir - O Come All Ye Faithful
TTITLE1=Sussex Carol
TTITLE2=Aled Jones, Westminster Cathedral Choir - O Little Town of Bethle
TTITLE2=hem - Aled Jones and Choir
TTITLE3=Emlyn Williams - The Oxen, Thomas Hardy
TTITLE4=Benjamin Luxon - I Wonder as I Wander (Appalachian Carol)
TTITLE5=Eirian James - Rocking (Czech Carol)
TTITLE6=Aled Jones - Come Unto Him
TTITLE7=Emlyn Williams - Excerpt from Sketches, Charles 'Boz' Dickens
TTITLE8=Aled Jones, Benjamin Luxon and Westminster Cathedral Choir - Good K
TTITLE8=ing Wenceslas
TTITLE9=Westminster Cathedral Choir - Ding Dong Merrily on High
TTITLE10=Aled Jones - The Holy Boy
TTITLE11=Benjamin Luxon and Westminster Cathedral Choir - In the Bleak Midwi
TTITLE11=nter - Benjamin Luxon and Choir
TTITLE12=Westminster Cathedral Choir - Coventry Carol
TTITLE13=Tomorrow Shall be My Dancing Day
TTITLE14=Hark the Herald Angels Sing
TTITLE15=Closing
EXTD=ID3G: 80
EXTT0=
EXTT1=
EXTT2=
EXTT3=
EXTT4=
EXTT5=
EXTT6=
EXTT7=
EXTT8=
EXTT9=
EXTT10=
EXTT11=
EXTT12=
EXTT13=
EXTT14=
EXTT15=
PLAYORDER=
